<svg width="20" height="16" viewBox="0 0 20 16" fill="none" xmlns="http://www.w3.org/2000/svg">
<path d="M18.3799 4.57012L17.1499 6.42012C17.7431 7.6032 18.0335 8.91495 17.9951 10.2378C17.9567 11.5607 17.5907 12.8534 16.9299 14.0001H3.06993C2.2111 12.5102 1.85522 10.7832 2.05507 9.07519C2.25491 7.36714 2.99984 5.76895 4.17941 4.51755C5.35898 3.26615 6.91039 2.42816 8.60367 2.12782C10.2969 1.82747 12.0419 2.08076 13.5799 2.85012L15.4299 1.62012C13.5464 0.412337 11.3123 -0.128874 9.08482 0.0830575C6.85738 0.294989 4.76537 1.24782 3.14342 2.78913C1.52147 4.33045 0.46329 6.37119 0.138146 8.58494C-0.186999 10.7987 0.239679 13.0575 1.34993 15.0001C1.52444 15.3024 1.77502 15.5537 2.07676 15.7292C2.3785 15.9046 2.7209 15.998 3.06993 16.0001H16.9199C17.2723 16.0015 17.6189 15.9098 17.9244 15.7342C18.23 15.5586 18.4837 15.3053 18.6599 15.0001C19.5813 13.404 20.0437 11.5844 19.996 9.74207C19.9484 7.89976 19.3926 6.10644 18.3899 4.56012L18.3799 4.57012ZM8.58993 11.4101C8.77567 11.5961 8.99625 11.7436 9.23905 11.8442C9.48184 11.9449 9.7421 11.9967 10.0049 11.9967C10.2678 11.9967 10.528 11.9449 10.7708 11.8442C11.0136 11.7436 11.2342 11.5961 11.4199 11.4101L17.0799 2.92012L8.58993 8.58012C8.40398 8.76587 8.25646 8.98644 8.15581 9.22924C8.05516 9.47204 8.00336 9.73229 8.00336 9.99512C8.00336 10.258 8.05516 10.5182 8.15581 10.761C8.25646 11.0038 8.40398 11.2244 8.58993 11.4101Z" fill="#8C8C8C"/>
</svg>
